<svg xmlns="http://www.w3.org/2000/svg" width="767" height="244.969" viewBox="0 0 767 244.969">
  <metadata><?xpacket begin="﻿" id="W5M0MpCehiHzreSzNTczkc9d"?>
<x:xmpmeta xmlns:x="adobe:ns:meta/" x:xmptk="Adobe XMP Core 5.6-c138 79.159824, 2016/09/14-01:09:01        ">
   <rdf:RDF xmlns:rdf="http://www.w3.org/1999/02/22-rdf-syntax-ns#">
      <rdf:Description rdf:about=""/>
   </rdf:RDF>
</x:xmpmeta>
                                                                                                    
                                                                                                    
                                                                                                    
                                                                                                    
                                                                                                    
                                                                                                    
                                                                                                    
                                                                                                    
                                                                                                    
                                                                                                    
                                                                                                    
                                                                                                    
                                                                                                    
                                                                                                    
                                                                                                    
                                                                                                    
                                                                                                    
                                                                                                    
                                                                                                    
                                                                                                    
                           
<?xpacket end="w"?></metadata>
<defs>
    <style>
      .cls-1 {
        fill: #e1e2e4;
        fill-rule: evenodd;
      }
    </style>
  </defs>
  <path class="cls-1" d="M1652.34,349.83h39.03A17.616,17.616,0,0,0,1709,332.224h0a17.615,17.615,0,0,0-17.63-17.6h-39.03a17.621,17.621,0,0,0-17.63,17.6h0A17.622,17.622,0,0,0,1652.34,349.83Zm-692.7,58.877h39.024A17.616,17.616,0,0,0,1016.29,391.1h0A17.616,17.616,0,0,0,998.659,373.5H959.635A17.62,17.62,0,0,0,942,391.1h0A17.62,17.62,0,0,0,959.635,408.707ZM1619.74,248.016H1079.78a20.916,20.916,0,0,0-20.94,20.932h0a16.967,16.967,0,0,0,16.98,16.937h40.76a10.286,10.286,0,0,1,10.29,10.276v5.366a10.284,10.284,0,0,1-10.29,10.275H1016.55a16.978,16.978,0,0,0-16.99,16.96h0a16.975,16.975,0,0,0,16.91,16.96l157.16,0.705a10.286,10.286,0,0,1,10.25,10.276v2.587a10.283,10.283,0,0,1-10.37,10.275l-92.71-.663a16.971,16.971,0,0,0-17.11,17.008l0.01,4.027a16.973,16.973,0,0,0,16.99,16.912h123.15a10.284,10.284,0,0,1,10.29,10.275v9.741a10.282,10.282,0,0,1-10.16,10.275l-207.445,2.577a26.659,26.659,0,0,0-26.35,26.635h0a26.659,26.659,0,0,0,26.682,26.636h674.7a31.963,31.963,0,0,0,31.99-31.939h0a31.966,31.966,0,0,0-32.15-31.941l-69.28.352a10.285,10.285,0,0,1-10.35-10.274v-4.745a10.286,10.286,0,0,1,10.29-10.277h50.27a16.977,16.977,0,0,0,16.99-16.96v-1.229a16.977,16.977,0,0,0-16.99-16.959H1507.95a10.279,10.279,0,0,1-10.29-10.276h0a10.277,10.277,0,0,1,10.29-10.275h97.98a16.978,16.978,0,0,0,16.99-16.96v-3.462a16.976,16.976,0,0,0-16.99-16.959H1494.87a10.288,10.288,0,0,1-10.3-10.277v-8.532A10.286,10.286,0,0,1,1494.87,282h124.87a16.978,16.978,0,0,0,16.99-16.961v-0.065A16.976,16.976,0,0,0,1619.74,248.016Z" transform="translate(-942 -248.031)"/>
</svg>
